<?xml version="1.0" standalone="no"?>
<!DOCTYPE svg PUBLIC "-//W3C//DTD SVG 20010904//EN"
 "http://www.w3.org/TR/2001/REC-SVG-20010904/DTD/svg10.dtd">
<svg version="1.0" xmlns="http://www.w3.org/2000/svg"
 width="684.000000pt" height="224.000000pt" viewBox="0 0 684.000000 224.000000"
 preserveAspectRatio="xMidYMid meet">

<g transform="translate(0.000000,224.000000) scale(0.100000,-0.100000)"
fill="#000000" stroke="none">
<path d="M470 1020 l0 -841 133 3 132 3 5 259 c5 236 7 260 23 270 24 14 34 1
126 -154 39 -66 103 -174 142 -241 40 -66 77 -123 83 -125 17 -6 5397 -13
5429 -7 l27 6 -2 256 -3 256 -2785 5 -2785 5 -68 32 c-41 20 -67 38 -65 45 3
7 32 29 65 48 158 91 270 240 314 419 56 221 -17 424 -191 534 -94 59 -137 67
-372 67 l-208 0 0 -840z m397 735 c13 -9 28 -28 34 -42 6 -16 9 -170 7 -400
l-3 -375 -33 -29 c-28 -25 -41 -30 -75 -27 l-42 3 -3 439 c-2 345 1 442 10
448 18 12 75 2 105 -17z"/>
<path d="M1425 1580 c-60 -24 -90 -95 -105 -246 -17 -164 3 -347 45 -410 38
-58 124 -81 185 -49 38 20 74 91 89 176 14 80 14 263 1 343 -13 79 -52 157
-89 179 -30 18 -92 22 -126 7z m81 -8 c5 -4 18 -18 27 -32 15 -22 17 -59 17
-318 0 -283 -1 -295 -21 -324 -17 -23 -27 -29 -53 -26 -24 2 -35 11 -49 38
-16 32 -17 63 -15 327 l3 291 24 26 c25 26 47 32 67 18z"/>
<path d="M2943 1570 c-71 -43 -96 -131 -97 -350 0 -190 16 -260 75 -323 l38
-40 72 5 c49 4 79 12 97 25 l27 20 0 214 0 214 -42 3 -43 3 0 -219 c0 -199 -2
-220 -18 -235 -29 -26 -69 -21 -89 10 -16 24 -18 59 -21 309 -3 233 -1 288 12
318 30 72 103 68 139 -6 10 -21 23 -38 28 -38 18 0 21 29 5 51 -40 58 -123 76
-183 39z"/>
<path d="M1770 1221 l0 -361 58 1 c31 0 51 3 45 6 -10 4 -13 83 -13 349 l0
344 33 0 c45 0 74 -30 82 -82 3 -24 5 -159 3 -301 l-3 -259 -34 -30 -35 -31
30 7 c101 25 133 109 133 346 0 211 -30 318 -99 351 -14 7 -64 14 -112 17
l-88 4 0 -361z"/>
<path d="M2637 1573 c-4 -3 -7 -165 -7 -359 l0 -352 23 -4 c13 -3 34 -1 45 3
22 8 22 9 22 358 0 309 -2 350 -16 355 -21 8 -59 8 -67 -1z"/>
<path d="M3992 1220 c2 -315 3 -337 8 -163 3 111 8 204 12 208 4 4 22 -14 40
-40 61 -88 55 -83 67 -55 6 14 40 95 75 180 35 85 68 155 72 155 5 0 10 -145
12 -322 2 -306 3 -322 21 -328 11 -3 31 -3 45 1 l26 6 0 360 0 359 -51 -3
c-60 -3 -52 6 -115 -146 -26 -62 -52 -111 -58 -109 -6 1 -38 55 -71 120 -33
64 -66 122 -73 129 -9 9 -12 -63 -10 -352z"/>
<path d="M4645 1558 c-3 -13 -19 -93 -37 -178 -17 -85 -48 -236 -68 -335 -20
-99 -36 -182 -34 -184 7 -8 16 8 23 41 l7 33 91 3 91 3 7 -40 c5 -31 12 -41
28 -43 38 -6 67 3 67 22 0 13 -100 480 -145 678 -3 12 -10 22 -15 22 -5 0 -12
-10 -15 -22z m6 -320 c38 -176 53 -258 46 -265 -8 -7 -135 -6 -147 2 -6 4 52
307 65 344 9 24 17 5 36 -81z"/>
<path d="M2190 1214 l0 -355 43 3 42 3 3 85 c2 47 7 89 12 94 5 5 20 -14 35
-47 53 -111 146 -166 195 -117 34 34 26 48 -24 43 -43 -5 -47 -4 -100 50 -31
31 -56 62 -56 71 0 8 13 24 30 36 39 27 83 94 98 146 18 63 16 228 -4 267 -25
50 -63 76 -109 76 -39 1 -39 0 -15 -12 43 -22 50 -50 50 -218 0 -86 -5 -170
-10 -186 -12 -33 -52 -57 -81 -48 -18 6 -19 20 -19 230 0 169 3 225 13 228 6
3 -14 6 -45 6 l-58 1 0 -356z"/>
<path d="M4942 1219 c3 -385 2 -380 61 -365 26 6 27 9 27 79 0 81 8 120 22
111 5 -3 20 -29 32 -57 40 -89 123 -150 169 -126 26 14 37 28 37 50 0 14 -8
16 -43 12 -40 -5 -46 -2 -89 39 -73 72 -74 78 -23 127 66 63 97 133 102 239 6
108 -8 165 -52 209 l-33 33 -106 0 -106 0 2 -351z m183 310 c14 -25 16 -61 13
-209 -3 -190 -6 -200 -54 -214 -46 -14 -51 7 -53 221 -1 109 1 206 4 216 5 11
18 17 41 17 27 0 36 -6 49 -31z"/>
<path d="M3567 1310 c-52 -41 -47 -96 23 -245 21 -44 44 -98 51 -120 18 -56
27 -65 60 -65 29 0 29 0 14 30 -8 16 -15 38 -15 50 0 11 -4 20 -8 20 -4 0 -25
38 -46 85 l-39 86 42 38 c28 26 41 46 41 65 0 31 -40 76 -67 76 -15 0 -14 -2
5 -16 30 -21 32 -102 3 -128 -25 -23 -38 -15 -51 32 -14 51 -13 68 6 87 25 24
11 28 -19 5z"/>
<path d="M5463 1205 c-2 -6 -2 -87 -1 -180 l3 -170 68 -3 c42 -2 67 1 67 8 0
5 -20 10 -45 10 l-45 0 0 125 0 125 39 0 c55 0 61 18 9 22 -36 2 -44 7 -46 26
-3 20 1 22 37 22 68 0 55 18 -15 22 -40 2 -68 -1 -71 -7z"/>
<path d="M5992 1038 c3 -155 5 -183 18 -183 9 0 19 16 26 44 l10 44 22 -34
c28 -46 57 -63 82 -49 25 14 26 33 1 25 -12 -4 -30 4 -50 21 -35 29 -39 45
-14 65 28 24 53 92 53 147 0 43 -5 57 -25 77 -30 31 -50 34 -35 5 6 -11 10
-60 8 -111 -2 -74 -6 -94 -20 -103 -9 -5 -20 -7 -24 -4 -3 4 -6 59 -6 122 l0
116 -24 0 -24 0 2 -182z"/>
<path d="M6347 1212 c-16 -3 -17 -18 -15 -180 l3 -177 68 -3 c73 -3 96 15 25
20 l-43 3 -3 165 c-1 90 -6 167 -10 171 -4 3 -15 4 -25 1z"/>
<path d="M5768 1078 c-4 -166 2 -223 22 -223 13 0 15 28 18 178 2 170 2 177
-17 177 -19 0 -20 -8 -23 -132z"/>
<path d="M3719 1093 c4 -35 5 -36 12 -13 11 39 10 50 -4 50 -9 0 -12 -11 -8
-37z"/>
<path d="M3498 1088 c-57 -81 4 -208 100 -208 l27 0 -33 26 c-55 44 -91 138
-72 189 13 34 6 31 -22 -7z"/>
<path d="M5650 879 c0 -26 3 -30 23 -27 16 2 23 11 25 31 3 23 0 27 -22 27
-22 0 -26 -4 -26 -31z"/>
<path d="M5872 883 c2 -20 9 -28 23 -28 14 0 21 8 23 28 3 23 0 27 -23 27 -23
0 -26 -4 -23 -27z"/>
<path d="M6227 903 c-13 -12 -7 -41 9 -47 22 -9 34 1 34 30 0 17 -6 24 -18 24
-10 0 -22 -3 -25 -7z"/>
<path d="M6522 883 c2 -20 9 -28 23 -28 14 0 21 8 23 28 3 23 0 27 -23 27 -23
0 -26 -4 -23 -27z"/>
</g>
</svg>
